<?xml version="1.0" standalone="no"?>
<!DOCTYPE svg PUBLIC "-//W3C//DTD SVG 20010904//EN"
 "http://www.w3.org/TR/2001/REC-SVG-20010904/DTD/svg10.dtd">
<svg version="1.0" xmlns="http://www.w3.org/2000/svg"
 width="637.000000pt" height="637.000000pt" viewBox="0 0 637.000000 637.000000"
 preserveAspectRatio="xMidYMid meet">
<metadata>
Created by potrace 1.14, written by Peter Selinger 2001-2017
</metadata>
<g transform="translate(0.000000,637.000000) scale(0.100000,-0.100000)"
fill="#000000" stroke="none">
<path d="M3952 4069 c-103 -51 -133 -192 -60 -284 75 -96 248 -82 306 25 28
52 34 86 21 133 -32 122 -157 180 -267 126z"/>
<path d="M2970 3989 c-8 -5 -49 -24 -90 -43 -96 -42 -137 -77 -166 -141 l-24
-50 0 -527 0 -528 155 0 c117 0 155 3 156 13 0 6 1 297 2 644 1 415 -1 634 -8
637 -5 2 -17 -1 -25 -5z"/>
<path d="M5225 3939 c-111 -51 -139 -69 -157 -102 -13 -24 -19 -57 -10 -57 11
0 286 122 300 133 6 5 12 25 12 43 0 45 -11 44 -145 -17z"/>
<path d="M5205 3801 l-150 -66 -3 -43 c-2 -25 1 -42 8 -42 9 0 141 55 263 110
46 20 47 22 47 65 0 25 -3 45 -7 44 -5 -1 -75 -31 -158 -68z"/>
<path d="M935 3820 c-11 -4 -33 -22 -50 -40 l-30 -31 -3 -525 -3 -524 166 0
165 0 0 565 0 565 -112 -1 c-62 0 -122 -4 -133 -9z"/>
<path d="M5205 3667 c-77 -34 -143 -66 -147 -72 -10 -13 -10 -73 0 -78 6 -4
269 106 300 126 6 5 12 26 12 48 0 25 -4 39 -12 38 -7 0 -76 -28 -153 -62z"/>
<path d="M2065 3581 c-59 -21 -91 -37 -122 -61 -22 -17 -22 -17 22 -22 58 -7
90 -29 116 -81 21 -40 22 -54 23 -377 l1 -335 158 -3 158 -3 -3 358 -3 358
-26 56 c-28 59 -71 98 -128 118 -50 16 -139 13 -196 -8z"/>
<path d="M1720 3572 c-19 -9 -72 -33 -117 -54 -70 -33 -86 -45 -108 -83 l-26
-44 -2 -343 -2 -343 158 -3 157 -3 0 446 c0 350 -3 445 -12 444 -7 0 -29 -8
-48 -17z"/>
<path d="M3332 3579 c-34 -7 -68 -29 -87 -56 -16 -23 -87 -204 -83 -213 3 -6
421 249 441 269 9 9 -227 9 -271 0z"/>
<path d="M4065 3541 c-55 -27 -112 -61 -127 -77 -56 -60 -58 -74 -58 -434 l0
-330 155 0 c117 0 155 3 156 13 1 17 1 781 0 835 -1 27 -5 42 -13 41 -7 0 -58
-22 -113 -48z"/>
<path d="M4820 3583 c-135 -16 -260 -70 -315 -138 -84 -101 -114 -267 -80
-429 41 -193 155 -284 390 -311 l60 -7 -32 33 c-41 44 -79 126 -99 217 -13 58
-15 108 -11 230 4 136 8 167 31 232 16 46 42 95 66 124 41 49 46 57 33 54 -5
0 -24 -3 -43 -5z"/>
<path d="M5245 3549 c-206 -91 -195 -84 -195 -129 0 -47 6 -49 75 -17 28 13
91 41 140 62 50 21 93 43 97 49 4 6 8 26 8 44 0 42 -12 41 -125 -9z"/>
<path d="M5198 3393 l-148 -65 0 -37 c0 -21 3 -40 6 -43 3 -3 61 18 130 48
190 82 184 78 184 124 0 26 -5 40 -12 40 -7 -1 -79 -30 -160 -67z"/>
<path d="M5335 3322 c-6 -5 -66 -33 -135 -62 -69 -30 -131 -58 -137 -63 -15
-11 -18 -87 -3 -87 5 0 77 30 160 66 l150 66 0 44 c0 43 -13 56 -35 36z"/>
<path d="M5220 3134 c-69 -31 -135 -59 -147 -64 -18 -8 -23 -17 -23 -48 0 -21
2 -41 6 -44 3 -3 73 24 157 61 l152 67 3 42 c2 30 -1 42 -10 42 -7 -1 -69 -26
-138 -56z"/>
<path d="M3160 3152 c0 -8 22 -57 156 -339 l53 -113 170 0 c94 0 171 3 171 8
-1 4 -44 92 -98 196 -76 148 -105 196 -135 220 -38 31 -40 31 -178 34 -81 2
-139 0 -139 -6z"/>
<path d="M5198 2991 l-147 -66 -1 -113 0 -113 158 3 157 3 2 172 c1 124 -2
173 -10 175 -7 3 -78 -25 -159 -61z"/>
<path d="M5602 3025 c-82 -51 -108 -161 -56 -242 37 -56 77 -77 145 -78 224
-1 230 326 6 342 -43 3 -60 -1 -95 -22z"/>
<path d="M3608 2618 c-2 -7 -3 -50 -3 -95 1 -46 -2 -83 -7 -83 -5 0 -19 6 -31
14 -39 25 -83 26 -129 3 -160 -82 -78 -381 89 -326 20 6 46 20 57 31 21 19 21
19 26 -4 4 -14 13 -23 25 -23 19 0 20 9 20 245 0 242 0 245 -21 248 -12 2 -23
-3 -26 -10z m-41 -203 c50 -35 54 -172 6 -220 -37 -37 -95 -35 -134 4 -26 26
-29 36 -29 91 0 64 17 112 47 129 27 15 86 13 110 -4z"/>
<path d="M4707 2613 c-3 -10 -5 -120 -6 -245 -2 -219 -1 -227 19 -233 32 -10
40 3 40 69 0 44 5 67 15 76 20 16 30 7 86 -75 43 -63 80 -88 100 -68 5 5 -2
22 -19 43 -15 19 -47 61 -70 92 l-42 57 60 64 c33 36 60 67 60 71 0 3 -11 6
-24 6 -23 0 -95 -69 -133 -127 -8 -13 -19 -23 -24 -23 -5 0 -9 63 -9 139 0 77
-3 146 -6 155 -8 22 -42 20 -47 -1z"/>
<path d="M4166 2587 c-24 -17 -17 -51 11 -55 30 -4 49 31 27 52 -19 19 -16 19
-38 3z"/>
<path d="M3105 2465 c-125 -44 -141 -253 -26 -319 58 -33 196 -25 189 12 -2
10 -11 16 -23 14 -57 -7 -119 -2 -142 13 -22 15 -53 69 -53 95 0 6 40 10 108
10 59 0 113 4 121 9 10 6 12 21 8 50 -13 97 -93 148 -182 116z m100 -47 c15
-14 27 -35 28 -53 l2 -30 -84 -3 c-46 -2 -88 1 -92 5 -13 13 23 76 51 90 37
19 66 16 95 -9z"/>
<path d="M4438 2466 c-20 -7 -45 -21 -55 -31 -17 -17 -18 -17 -23 6 -4 15 -13
24 -25 24 -19 0 -20 -8 -20 -165 l0 -165 25 0 25 0 5 123 c5 120 6 124 33 148
34 29 76 31 108 5 22 -18 24 -28 29 -147 4 -116 7 -129 24 -132 10 -2 22 1 26
8 4 7 6 65 5 130 -2 92 -7 125 -21 148 -29 50 -80 68 -136 48z"/>
<path d="M3764 2455 c-4 -8 -5 -69 -3 -134 3 -102 7 -124 25 -148 44 -60 114
-67 173 -17 l30 25 3 -23 c2 -15 11 -24 26 -26 l22 -3 -2 168 c-3 166 -3 168
-25 171 -13 2 -23 0 -24 -5 0 -4 -1 -61 -2 -126 -2 -117 -2 -119 -30 -143 -28
-24 -80 -32 -103 -16 -26 17 -35 57 -35 154 0 57 -3 111 -5 121 -6 21 -42 23
-50 2z"/>
<path d="M4155 2448 c-3 -13 -4 -88 -3 -168 l3 -145 25 0 25 0 3 168 2 167
-25 0 c-17 0 -26 -7 -30 -22z"/>
</g>
</svg>
