<?xml version="1.0" standalone="no"?>
<!DOCTYPE svg PUBLIC "-//W3C//DTD SVG 20010904//EN"
 "http://www.w3.org/TR/2001/REC-SVG-20010904/DTD/svg10.dtd">
<svg version="1.0" xmlns="http://www.w3.org/2000/svg"
 width="171.000000pt" height="171.000000pt" viewBox="0 0 171.000000 171.000000"
 preserveAspectRatio="xMidYMid meet">
<metadata>
Created by potrace 1.14, written by Peter Selinger 2001-2017
</metadata>
<g transform="translate(0.000000,171.000000) scale(0.100000,-0.100000)"
fill="#000000" stroke="none">
<path d="M980 1448 c-141 -62 -171 -82 -195 -132 -15 -29 -20 -66 -9 -66 3 0
83 34 178 76 l171 76 0 54 c0 30 -2 54 -5 53 -3 0 -66 -28 -140 -61z"/>
<path d="M990 1311 c-58 -26 -126 -58 -152 -69 -26 -12 -52 -22 -57 -22 -6 0
-11 -6 -12 -12 -5 -101 -4 -108 15 -102 10 4 91 38 179 78 l161 71 2 53 c1 42
-2 52 -15 51 -9 0 -63 -22 -121 -48z"/>
<path d="M945 1144 c-93 -42 -171 -77 -173 -79 -3 -2 -5 -78 -3 -102 1 -12 26
-2 169 63 29 13 80 36 115 50 34 14 64 28 66 30 7 6 9 114 2 113 -3 0 -82 -34
-176 -75z"/>
<path d="M942 995 c-89 -40 -165 -75 -167 -77 -9 -9 -12 -99 -4 -104 5 -3 79
26 166 64 87 38 165 71 173 74 12 4 16 20 15 59 0 29 -4 53 -10 55 -5 1 -83
-31 -173 -71z"/>
<path d="M558 1055 c-2 -2 -28 -5 -58 -9 -301 -31 -437 -194 -426 -511 7 -205
65 -314 208 -393 65 -36 140 -55 273 -66 l50 -5 -50 52 c-54 56 -86 125 -111
240 -14 65 -13 349 1 417 20 99 79 209 131 247 26 19 26 20 6 25 -11 3 -22 5
-24 3z"/>
<path d="M945 849 c-88 -39 -165 -75 -171 -80 -9 -7 -9 -97 0 -107 3 -2 309
131 336 146 17 11 23 112 6 112 -6 0 -83 -32 -171 -71z"/>
<path d="M943 701 l-171 -75 -4 -43 c-6 -77 -8 -77 177 4 94 41 172 77 174 79
7 7 8 105 2 108 -3 2 -83 -31 -178 -73z"/>
<path d="M945 555 l-170 -74 -3 -61 c-3 -61 -3 -61 20 -49 13 7 93 43 178 80
l155 68 0 55 c1 31 -2 56 -5 56 -3 0 -81 -34 -175 -75z"/>
<path d="M943 407 c-89 -40 -164 -74 -167 -77 -5 -5 -9 -129 -7 -210 l1 -45
178 0 177 0 0 203 c0 130 -3 202 -10 201 -5 0 -83 -33 -172 -72z"/>
<path d="M1391 448 c-88 -46 -129 -131 -106 -222 16 -61 41 -95 95 -125 80
-45 180 -28 242 42 37 40 51 88 46 153 -11 130 -161 213 -277 152z"/>
</g>
</svg>
